# xmcd
#
# Track frame offsets: 
#        150
#        19975
#        36777
#        52467
#        77233
#        91522
#        113976
#        147631
#        167287
#        182102
#        200552
#        215081
#        230314
#
# Disc length: 3341 seconds
#
# Revision: 1
# Processed by: cddbd v1.5.2PL0 Copyright (c) Steve Scherf et al.
# Submitted via: ExactAudioCopy v1.1
#
DISCID=b90d0b0d
DTITLE=Marco Marchi and the Mojo Workers - My Old River
DYEAR=2012
DGENRE=Boogie-Woogie
TTITLE0=Sometimes Baby
TTITLE1=When I'm Gone
TTITLE2=Mambo At The Mocambo
TTITLE3=Do You Remember
TTITLE4=Big Bad Billy
TTITLE5=Fight For The Right
TTITLE6=Early In The Morning
TTITLE7=Meat Shakin' Woman
TTITLE8=Diddie Wa Diddie
TTITLE9=Ragged and Dirty
TTITLE10=Let The Circle Be Unbroken
TTITLE11=My Old River
TTITLE12=Joy
EXTD=Members of the Mojo Workers\n - Marco Marchi: guitars, vocal\n - 
EXTD=Claudio Egli: harmonica\n - Fabio Bianchi: tuba, electric bass\n 
EXTD=Toby Stiftner: drums, washboard
EXTT0=
EXTT1=
EXTT2=
EXTT3=
EXTT4=
EXTT5=
EXTT6=
EXTT7=
EXTT8=
EXTT9=
EXTT10=
EXTT11=
EXTT12=
PLAYORDER=
